<?xml version="1.0" encoding="UTF-8" standalone="no"?>
<!DOCTYPE svg PUBLIC "-//W3C//DTD SVG 1.1//EN"
 "http://www.w3.org/Graphics/SVG/1.1/DTD/svg11.dtd">
<!-- Generated by graphviz version 2.44.0 (0)
 -->
<!-- Title: POP3 Pages: 1 -->
<svg width="687pt" height="1268pt"
 viewBox="0.00 0.00 687.00 1268.00" xmlns="http://www.w3.org/2000/svg" xmlns:xlink="http://www.w3.org/1999/xlink">
<g id="graph0" class="graph" transform="scale(1 1) rotate(0) translate(4 1264)">
<title>POP3</title>
<polygon fill="white" stroke="transparent" points="-4,4 -4,-1264 683,-1264 683,4 -4,4"/>
<!-- 1984 -->
<g id="node1" class="node">
<title>1984</title>
<text text-anchor="middle" x="27" y="-1238.3" font-family="Courier,monospace" font-size="14.00">1984</text>
</g>
<!-- 1985 -->
<g id="node2" class="node">
<title>1985</title>
<text text-anchor="middle" x="27" y="-1166.3" font-family="Courier,monospace" font-size="14.00">1985</text>
</g>
<!-- 1984&#45;&gt;1985 -->
<g id="edge1" class="edge">
<title>1984&#45;&gt;1985</title>
<path fill="none" stroke="black" d="M27,-1223.7C27,-1212.85 27,-1198.92 27,-1188.1"/>
</g>
<!-- 1988 -->
<g id="node3" class="node">
<title>1988</title>
<text text-anchor="middle" x="27" y="-1094.3" font-family="Courier,monospace" font-size="14.00">1988</text>
</g>
<!-- 1985&#45;&gt;1988 -->
<g id="edge2" class="edge">
<title>1985&#45;&gt;1988</title>
<path fill="none" stroke="black" d="M27,-1151.7C27,-1140.85 27,-1126.92 27,-1116.1"/>
</g>
<!-- 1991 -->
<g id="node4" class="node">
<title>1991</title>
<text text-anchor="middle" x="27" y="-1022.3" font-family="Courier,monospace" font-size="14.00">1991</text>
</g>
<!-- 1988&#45;&gt;1991 -->
<g id="edge3" class="edge">
<title>1988&#45;&gt;1991</title>
<path fill="none" stroke="black" d="M27,-1079.7C27,-1068.85 27,-1054.92 27,-1044.1"/>
</g>
<!-- 1993 -->
<g id="node5" class="node">
<title>1993</title>
<text text-anchor="middle" x="27" y="-950.3" font-family="Courier,monospace" font-size="14.00">1993</text>
</g>
<!-- 1991&#45;&gt;1993 -->
<g id="edge4" class="edge">
<title>1991&#45;&gt;1993</title>
<path fill="none" stroke="black" d="M27,-1007.7C27,-996.85 27,-982.92 27,-972.1"/>
</g>
<!-- 1994 -->
<g id="node6" class="node">
<title>1994</title>
<text text-anchor="middle" x="27" y="-878.3" font-family="Courier,monospace" font-size="14.00">1994</text>
</g>
<!-- 1993&#45;&gt;1994 -->
<g id="edge5" class="edge">
<title>1993&#45;&gt;1994</title>
<path fill="none" stroke="black" d="M27,-935.7C27,-924.85 27,-910.92 27,-900.1"/>
</g>
<!-- 1996 -->
<g id="node7" class="node">
<title>1996</title>
<text text-anchor="middle" x="27" y="-806.3" font-family="Courier,monospace" font-size="14.00">1996</text>
</g>
<!-- 1994&#45;&gt;1996 -->
<g id="edge6" class="edge">
<title>1994&#45;&gt;1996</title>
<path fill="none" stroke="black" d="M27,-863.7C27,-852.85 27,-838.92 27,-828.1"/>
</g>
<!-- 1997 -->
<g id="node8" class="node">
<title>1997</title>
<text text-anchor="middle" x="27" y="-734.3" font-family="Courier,monospace" font-size="14.00">1997</text>
</g>
<!-- 1996&#45;&gt;1997 -->
<g id="edge7" class="edge">
<title>1996&#45;&gt;1997</title>
<path fill="none" stroke="black" d="M27,-791.7C27,-780.85 27,-766.92 27,-756.1"/>
</g>
<!-- 1998 -->
<g id="node9" class="node">
<title>1998</title>
<text text-anchor="middle" x="27" y="-662.3" font-family="Courier,monospace" font-size="14.00">1998</text>
</g>
<!-- 1997&#45;&gt;1998 -->
<g id="edge8" class="edge">
<title>1997&#45;&gt;1998</title>
<path fill="none" stroke="black" d="M27,-719.7C27,-708.85 27,-694.92 27,-684.1"/>
</g>
<!-- 1999 -->
<g id="node10" class="node">
<title>1999</title>
<text text-anchor="middle" x="27" y="-590.3" font-family="Courier,monospace" font-size="14.00">1999</text>
</g>
<!-- 1998&#45;&gt;1999 -->
<g id="edge9" class="edge">
<title>1998&#45;&gt;1999</title>
<path fill="none" stroke="black" d="M27,-647.7C27,-636.85 27,-622.92 27,-612.1"/>
</g>
<!-- 2002 -->
<g id="node11" class="node">
<title>2002</title>
<text text-anchor="middle" x="27" y="-518.3" font-family="Courier,monospace" font-size="14.00">2002</text>
</g>
<!-- 1999&#45;&gt;2002 -->
<g id="edge10" class="edge">
<title>1999&#45;&gt;2002</title>
<path fill="none" stroke="black" d="M27,-575.7C27,-564.85 27,-550.92 27,-540.1"/>
</g>
<!-- 2006 -->
<g id="node12" class="node">
<title>2006</title>
<text text-anchor="middle" x="27" y="-446.3" font-family="Courier,monospace" font-size="14.00">2006</text>
</g>
<!-- 2002&#45;&gt;2006 -->
<g id="edge11" class="edge">
<title>2002&#45;&gt;2006</title>
<path fill="none" stroke="black" d="M27,-503.7C27,-492.85 27,-478.92 27,-468.1"/>
</g>
<!-- 2007 -->
<g id="node13" class="node">
<title>2007</title>
<text text-anchor="middle" x="27" y="-374.3" font-family="Courier,monospace" font-size="14.00">2007</text>
</g>
<!-- 2006&#45;&gt;2007 -->
<g id="edge12" class="edge">
<title>2006&#45;&gt;2007</title>
<path fill="none" stroke="black" d="M27,-431.7C27,-420.85 27,-406.92 27,-396.1"/>
</g>
<!-- 2010 -->
<g id="node14" class="node">
<title>2010</title>
<text text-anchor="middle" x="27" y="-302.3" font-family="Courier,monospace" font-size="14.00">2010</text>
</g>
<!-- 2007&#45;&gt;2010 -->
<g id="edge13" class="edge">
<title>2007&#45;&gt;2010</title>
<path fill="none" stroke="black" d="M27,-359.7C27,-348.85 27,-334.92 27,-324.1"/>
</g>
<!-- 2011 -->
<g id="node15" class="node">
<title>2011</title>
<text text-anchor="middle" x="27" y="-230.3" font-family="Courier,monospace" font-size="14.00">2011</text>
</g>
<!-- 2010&#45;&gt;2011 -->
<g id="edge14" class="edge">
<title>2010&#45;&gt;2011</title>
<path fill="none" stroke="black" d="M27,-287.7C27,-276.85 27,-262.92 27,-252.1"/>
</g>
<!-- 2013 -->
<g id="node16" class="node">
<title>2013</title>
<text text-anchor="middle" x="27" y="-158.3" font-family="Courier,monospace" font-size="14.00">2013</text>
</g>
<!-- 2011&#45;&gt;2013 -->
<g id="edge15" class="edge">
<title>2011&#45;&gt;2013</title>
<path fill="none" stroke="black" d="M27,-215.7C27,-204.85 27,-190.92 27,-180.1"/>
</g>
<!-- 2016 -->
<g id="node17" class="node">
<title>2016</title>
<text text-anchor="middle" x="27" y="-86.3" font-family="Courier,monospace" font-size="14.00">2016</text>
</g>
<!-- 2013&#45;&gt;2016 -->
<g id="edge16" class="edge">
<title>2013&#45;&gt;2016</title>
<path fill="none" stroke="black" d="M27,-143.7C27,-132.85 27,-118.92 27,-108.1"/>
</g>
<!-- 2018 -->
<g id="node18" class="node">
<title>2018</title>
<text text-anchor="middle" x="27" y="-14.3" font-family="Courier,monospace" font-size="14.00">2018</text>
</g>
<!-- 2016&#45;&gt;2018 -->
<g id="edge17" class="edge">
<title>2016&#45;&gt;2018</title>
<path fill="none" stroke="black" d="M27,-71.7C27,-60.85 27,-46.92 27,-36.1"/>
</g>
<!-- RFC0918 -->
<g id="node19" class="node">
<title>RFC0918</title>
<g id="a_node19"><a xlink:href="http://tools.ietf.org/html/rfc0918" xlink:title="RFC0918: Post Office Protocol" target="_blank">
<path fill="#c0c0c0" stroke="#a0a0a0" d="M134,-1260C134,-1260 84,-1260 84,-1260 78,-1260 72,-1254 72,-1248 72,-1248 72,-1236 72,-1236 72,-1230 78,-1224 84,-1224 84,-1224 134,-1224 134,-1224 140,-1224 146,-1230 146,-1236 146,-1236 146,-1248 146,-1248 146,-1254 140,-1260 134,-1260"/>
<text text-anchor="middle" x="109" y="-1238.3" font-family="Courier,monospace" font-size="14.00">RFC0918</text>
</a>
</g>
</g>
<!-- RFC0937 -->
<g id="node20" class="node">
<title>RFC0937</title>
<g id="a_node20"><a xlink:href="http://tools.ietf.org/html/rfc0937" xlink:title="RFC0937: Post Office Protocol: Version 2" target="_blank">
<path fill="#c0c0c0" stroke="#a0a0a0" d="M134,-1188C134,-1188 84,-1188 84,-1188 78,-1188 72,-1182 72,-1176 72,-1176 72,-1164 72,-1164 72,-1158 78,-1152 84,-1152 84,-1152 134,-1152 134,-1152 140,-1152 146,-1158 146,-1164 146,-1164 146,-1176 146,-1176 146,-1182 140,-1188 134,-1188"/>
<text text-anchor="middle" x="109" y="-1166.3" font-family="Courier,monospace" font-size="14.00">RFC0937</text>
</a>
</g>
</g>
<!-- RFC0918&#45;&gt;RFC0937 -->
<g id="edge18" class="edge">
<title>RFC0918&#45;&gt;RFC0937</title>
<path fill="none" stroke="#c0c0c0" d="M109,-1223.7C109,-1215.98 109,-1206.71 109,-1198.11"/>
<polygon fill="#c0c0c0" stroke="#c0c0c0" points="112.5,-1198.1 109,-1188.1 105.5,-1198.1 112.5,-1198.1"/>
</g>
<!-- RFC1081 -->
<g id="node21" class="node">
<title>RFC1081</title>
<g id="a_node21"><a xlink:href="http://tools.ietf.org/html/rfc1081" xlink:title="RFC1081: Post Office Protocol: Version 3" target="_blank">
<path fill="#c0c0c0" stroke="#a0a0a0" d="M172,-1116C172,-1116 122,-1116 122,-1116 116,-1116 110,-1110 110,-1104 110,-1104 110,-1092 110,-1092 110,-1086 116,-1080 122,-1080 122,-1080 172,-1080 172,-1080 178,-1080 184,-1086 184,-1092 184,-1092 184,-1104 184,-1104 184,-1110 178,-1116 172,-1116"/>
<text text-anchor="middle" x="147" y="-1094.3" font-family="Courier,monospace" font-size="14.00">RFC1081</text>
</a>
</g>
</g>
<!-- RFC1225 -->
<g id="node23" class="node">
<title>RFC1225</title>
<g id="a_node23"><a xlink:href="http://tools.ietf.org/html/rfc1225" xlink:title="RFC1225: Post Office Protocol: Version 3" target="_blank">
<path fill="#c0c0c0" stroke="#a0a0a0" d="M172,-1044C172,-1044 122,-1044 122,-1044 116,-1044 110,-1038 110,-1032 110,-1032 110,-1020 110,-1020 110,-1014 116,-1008 122,-1008 122,-1008 172,-1008 172,-1008 178,-1008 184,-1014 184,-1020 184,-1020 184,-1032 184,-1032 184,-1038 178,-1044 172,-1044"/>
<text text-anchor="middle" x="147" y="-1022.3" font-family="Courier,monospace" font-size="14.00">RFC1225</text>
</a>
</g>
</g>
<!-- RFC1081&#45;&gt;RFC1225 -->
<g id="edge19" class="edge">
<title>RFC1081&#45;&gt;RFC1225</title>
<path fill="none" stroke="#c0c0c0" d="M147,-1079.7C147,-1071.98 147,-1062.71 147,-1054.11"/>
<polygon fill="#c0c0c0" stroke="#c0c0c0" points="150.5,-1054.1 147,-1044.1 143.5,-1054.1 150.5,-1054.1"/>
</g>
<!-- RFC1082 -->
<g id="node22" class="node">
<title>RFC1082</title>
<g id="a_node22"><a xlink:href="http://tools.ietf.org/html/rfc1082" xlink:title="RFC1082: Post Office Protocol: Version 3: Extended service offerings" target="_blank">
<path fill="yellow" stroke="black" d="M264,-1116C264,-1116 214,-1116 214,-1116 208,-1116 202,-1110 202,-1104 202,-1104 202,-1092 202,-1092 202,-1086 208,-1080 214,-1080 214,-1080 264,-1080 264,-1080 270,-1080 276,-1086 276,-1092 276,-1092 276,-1104 276,-1104 276,-1110 270,-1116 264,-1116"/>
<text text-anchor="middle" x="239" y="-1094.3" font-family="Courier,monospace" font-size="14.00">RFC1082</text>
</a>
</g>
</g>
<!-- RFC1460 -->
<g id="node24" class="node">
<title>RFC1460</title>
<g id="a_node24"><a xlink:href="http://tools.ietf.org/html/rfc1460" xlink:title="RFC1460: Post Office Protocol &#45; Version 3" target="_blank">
<path fill="#c0c0c0" stroke="#a0a0a0" d="M172,-972C172,-972 122,-972 122,-972 116,-972 110,-966 110,-960 110,-960 110,-948 110,-948 110,-942 116,-936 122,-936 122,-936 172,-936 172,-936 178,-936 184,-942 184,-948 184,-948 184,-960 184,-960 184,-966 178,-972 172,-972"/>
<text text-anchor="middle" x="147" y="-950.3" font-family="Courier,monospace" font-size="14.00">RFC1460</text>
</a>
</g>
</g>
<!-- RFC1225&#45;&gt;RFC1460 -->
<g id="edge20" class="edge">
<title>RFC1225&#45;&gt;RFC1460</title>
<path fill="none" stroke="#c0c0c0" d="M147,-1007.7C147,-999.98 147,-990.71 147,-982.11"/>
<polygon fill="#c0c0c0" stroke="#c0c0c0" points="150.5,-982.1 147,-972.1 143.5,-982.1 150.5,-982.1"/>
</g>
<!-- RFC1725 -->
<g id="node25" class="node">
<title>RFC1725</title>
<g id="a_node25"><a xlink:href="http://tools.ietf.org/html/rfc1725" xlink:title="RFC1725: Post Office Protocol &#45; Version 3" target="_blank">
<path fill="#c0c0c0" stroke="#a0a0a0" d="M172,-900C172,-900 122,-900 122,-900 116,-900 110,-894 110,-888 110,-888 110,-876 110,-876 110,-870 116,-864 122,-864 122,-864 172,-864 172,-864 178,-864 184,-870 184,-876 184,-876 184,-888 184,-888 184,-894 178,-900 172,-900"/>
<text text-anchor="middle" x="147" y="-878.3" font-family="Courier,monospace" font-size="14.00">RFC1725</text>
</a>
</g>
</g>
<!-- RFC1460&#45;&gt;RFC1725 -->
<g id="edge21" class="edge">
<title>RFC1460&#45;&gt;RFC1725</title>
<path fill="none" stroke="#c0c0c0" d="M147,-935.7C147,-927.98 147,-918.71 147,-910.11"/>
<polygon fill="#c0c0c0" stroke="#c0c0c0" points="150.5,-910.1 147,-900.1 143.5,-910.1 150.5,-910.1"/>
</g>
<!-- RFC1939 -->
<g id="node27" class="node">
<title>RFC1939</title>
<g id="a_node27"><a xlink:href="http://tools.ietf.org/html/rfc1939" xlink:title="RFC1939: Post Office Protocol &#45; Version 3" target="_blank">
<path fill="yellow" stroke="black" d="M172,-828C172,-828 122,-828 122,-828 116,-828 110,-822 110,-816 110,-816 110,-804 110,-804 110,-798 116,-792 122,-792 122,-792 172,-792 172,-792 178,-792 184,-798 184,-804 184,-804 184,-816 184,-816 184,-822 178,-828 172,-828"/>
<text text-anchor="middle" x="147" y="-806.3" font-family="Courier,monospace" font-size="14.00">RFC1939</text>
</a>
</g>
</g>
<!-- RFC1725&#45;&gt;RFC1939 -->
<g id="edge22" class="edge">
<title>RFC1725&#45;&gt;RFC1939</title>
<path fill="none" stroke="#c0c0c0" d="M147,-863.7C147,-855.98 147,-846.71 147,-838.11"/>
<polygon fill="#c0c0c0" stroke="#c0c0c0" points="150.5,-838.1 147,-828.1 143.5,-838.1 150.5,-838.1"/>
</g>
<!-- RFC1734 -->
<g id="node26" class="node">
<title>RFC1734</title>
<g id="a_node26"><a xlink:href="http://tools.ietf.org/html/rfc1734" xlink:title="RFC1734: POP3 AUTHentication command" target="_blank">
<path fill="#c0c0c0" stroke="#a0a0a0" d="M329,-900C329,-900 279,-900 279,-900 273,-900 267,-894 267,-888 267,-888 267,-876 267,-876 267,-870 273,-864 279,-864 279,-864 329,-864 329,-864 335,-864 341,-870 341,-876 341,-876 341,-888 341,-888 341,-894 335,-900 329,-900"/>
<text text-anchor="middle" x="304" y="-878.3" font-family="Courier,monospace" font-size="14.00">RFC1734</text>
</a>
</g>
</g>
<!-- RFC5034 -->
<g id="node36" class="node">
<title>RFC5034</title>
<g id="a_node36"><a xlink:href="http://tools.ietf.org/html/rfc5034" xlink:title="RFC5034: The Post Office Protocol (POP3) Simple Authentication and Security Layer (SASL) Authentication Mechanism" target="_blank">
<path fill="yellow" stroke="black" d="M290,-396C290,-396 240,-396 240,-396 234,-396 228,-390 228,-384 228,-384 228,-372 228,-372 228,-366 234,-360 240,-360 240,-360 290,-360 290,-360 296,-360 302,-366 302,-372 302,-372 302,-384 302,-384 302,-390 296,-396 290,-396"/>
<text text-anchor="middle" x="265" y="-374.3" font-family="Courier,monospace" font-size="14.00">RFC5034</text>
</a>
</g>
</g>
<!-- RFC1734&#45;&gt;RFC5034 -->
<g id="edge28" class="edge">
<title>RFC1734&#45;&gt;RFC5034</title>
<path fill="none" stroke="#c0c0c0" d="M304,-863.95C304,-837.29 304,-784.11 304,-739 304,-739 304,-739 304,-521 304,-479.56 288.36,-433.67 276.89,-405.58"/>
<polygon fill="#c0c0c0" stroke="#c0c0c0" points="280,-403.93 272.89,-396.07 273.55,-406.65 280,-403.93"/>
</g>
<!-- RFC1957 -->
<g id="node28" class="node">
<title>RFC1957</title>
<g id="a_node28"><a xlink:href="http://tools.ietf.org/html/rfc1957" xlink:title="RFC1957: Some Observations on Implementations of the Post Office Protocol (POP3)" target="_blank">
<polygon fill="yellow" stroke="black" points="276,-828 202,-828 202,-792 276,-792 276,-828"/>
<text text-anchor="middle" x="239" y="-806.3" font-family="Courier,monospace" font-size="14.00">RFC1957</text>
</a>
</g>
</g>
<!-- RFC1939&#45;&gt;RFC1957 -->
<g id="edge23" class="edge">
<title>RFC1939&#45;&gt;RFC1957</title>
<path fill="none" stroke="black" d="M184.02,-810C186.49,-810 188.97,-810 191.45,-810"/>
<polygon fill="black" stroke="black" points="191.63,-813.5 201.63,-810 191.63,-806.5 191.63,-813.5"/>
</g>
<!-- RFC2449 -->
<g id="node32" class="node">
<title>RFC2449</title>
<g id="a_node32"><a xlink:href="http://tools.ietf.org/html/rfc2449" xlink:title="RFC2449: POP3 Extension Mechanism" target="_blank">
<path fill="yellow" stroke="black" d="M264,-684C264,-684 214,-684 214,-684 208,-684 202,-678 202,-672 202,-672 202,-660 202,-660 202,-654 208,-648 214,-648 214,-648 264,-648 264,-648 270,-648 276,-654 276,-660 276,-660 276,-672 276,-672 276,-678 270,-684 264,-684"/>
<text text-anchor="middle" x="239" y="-662.3" font-family="Courier,monospace" font-size="14.00">RFC2449</text>
</a>
</g>
</g>
<!-- RFC1939&#45;&gt;RFC2449 -->
<g id="edge25" class="edge">
<title>RFC1939&#45;&gt;RFC2449</title>
<path fill="none" stroke="black" d="M161.29,-791.78C169.47,-781.63 179.72,-768.38 188,-756 201.61,-735.64 215.32,-711.47 225.09,-693.46"/>
<polygon fill="black" stroke="black" points="228.44,-694.62 230.09,-684.15 222.27,-691.3 228.44,-694.62"/>
</g>
<!-- RFC6186 -->
<g id="node38" class="node">
<title>RFC6186</title>
<g id="a_node38"><a xlink:href="http://tools.ietf.org/html/rfc6186" xlink:title="RFC6186: Use of SRV Records for Locating Email Submission/Access Services" target="_blank">
<path fill="yellow" stroke="black" d="M134,-252C134,-252 84,-252 84,-252 78,-252 72,-246 72,-240 72,-240 72,-228 72,-228 72,-222 78,-216 84,-216 84,-216 134,-216 134,-216 140,-216 146,-222 146,-228 146,-228 146,-240 146,-240 146,-246 140,-252 134,-252"/>
<text text-anchor="middle" x="109" y="-230.3" font-family="Courier,monospace" font-size="14.00">RFC6186</text>
</a>
</g>
</g>
<!-- RFC1939&#45;&gt;RFC6186 -->
<g id="edge29" class="edge">
<title>RFC1939&#45;&gt;RFC6186</title>
<path fill="none" stroke="black" d="M142.14,-791.67C135.13,-765.08 123,-712.5 123,-667 123,-667 123,-667 123,-377 123,-337.02 117.44,-291.02 113.32,-262.47"/>
<polygon fill="black" stroke="black" points="116.76,-261.81 111.83,-252.43 109.84,-262.84 116.76,-261.81"/>
</g>
<!-- RFC8314 -->
<g id="node43" class="node">
<title>RFC8314</title>
<g id="a_node43"><a xlink:href="http://tools.ietf.org/html/rfc8314" xlink:title="RFC8314: Cleartext Considered Obsolete: Use of Transport Layer Security (TLS) for Email Submission and Access" target="_blank">
<path fill="yellow" stroke="black" d="M199,-36C199,-36 149,-36 149,-36 143,-36 137,-30 137,-24 137,-24 137,-12 137,-12 137,-6 143,0 149,0 149,0 199,0 199,0 205,0 211,-6 211,-12 211,-12 211,-24 211,-24 211,-30 205,-36 199,-36"/>
<text text-anchor="middle" x="174" y="-14.3" font-family="Courier,monospace" font-size="14.00">RFC8314</text>
</a>
</g>
</g>
<!-- RFC1939&#45;&gt;RFC8314 -->
<g id="edge32" class="edge">
<title>RFC1939&#45;&gt;RFC8314</title>
<path fill="none" stroke="black" d="M152.46,-791.71C160.35,-765.18 174,-712.67 174,-667 174,-667 174,-667 174,-161 174,-121 174,-74.65 174,-46.08"/>
<polygon fill="black" stroke="black" points="177.5,-46.05 174,-36.05 170.5,-46.05 177.5,-46.05"/>
</g>
<!-- RFC2095 -->
<g id="node29" class="node">
<title>RFC2095</title>
<g id="a_node29"><a xlink:href="http://tools.ietf.org/html/rfc2095" xlink:title="RFC2095: IMAP/POP AUTHorize Extension for Simple Challenge/Response" target="_blank">
<path fill="#c0c0c0" stroke="#a0a0a0" d="M394,-756C394,-756 344,-756 344,-756 338,-756 332,-750 332,-744 332,-744 332,-732 332,-732 332,-726 338,-720 344,-720 344,-720 394,-720 394,-720 400,-720 406,-726 406,-732 406,-732 406,-744 406,-744 406,-750 400,-756 394,-756"/>
<text text-anchor="middle" x="369" y="-734.3" font-family="Courier,monospace" font-size="14.00">RFC2095</text>
</a>
</g>
</g>
<!-- RFC2195 -->
<g id="node30" class="node">
<title>RFC2195</title>
<g id="a_node30"><a xlink:href="http://tools.ietf.org/html/rfc2195" xlink:title="RFC2195: IMAP/POP AUTHorize Extension for Simple Challenge/Response" target="_blank">
<path fill="yellow" stroke="black" d="M486,-756C486,-756 436,-756 436,-756 430,-756 424,-750 424,-744 424,-744 424,-732 424,-732 424,-726 430,-720 436,-720 436,-720 486,-720 486,-720 492,-720 498,-726 498,-732 498,-732 498,-744 498,-744 498,-750 492,-756 486,-756"/>
<text text-anchor="middle" x="461" y="-734.3" font-family="Courier,monospace" font-size="14.00">RFC2195</text>
</a>
</g>
</g>
<!-- RFC2095&#45;&gt;RFC2195 -->
<g id="edge24" class="edge">
<title>RFC2095&#45;&gt;RFC2195</title>
<path fill="none" stroke="#c0c0c0" d="M406.02,-738C408.49,-738 410.97,-738 413.45,-738"/>
<polygon fill="#c0c0c0" stroke="#c0c0c0" points="413.63,-741.5 423.63,-738 413.63,-734.5 413.63,-741.5"/>
</g>
<!-- RFC2384 -->
<g id="node31" class="node">
<title>RFC2384</title>
<g id="a_node31"><a xlink:href="http://tools.ietf.org/html/rfc2384" xlink:title="RFC2384: POP URL Scheme" target="_blank">
<path fill="yellow" stroke="black" d="M394,-684C394,-684 344,-684 344,-684 338,-684 332,-678 332,-672 332,-672 332,-660 332,-660 332,-654 338,-648 344,-648 344,-648 394,-648 394,-648 400,-648 406,-654 406,-660 406,-660 406,-672 406,-672 406,-678 400,-684 394,-684"/>
<text text-anchor="middle" x="369" y="-662.3" font-family="Courier,monospace" font-size="14.00">RFC2384</text>
</a>
</g>
</g>
<!-- RFC2449&#45;&gt;RFC5034 -->
<g id="edge27" class="edge">
<title>RFC2449&#45;&gt;RFC5034</title>
<path fill="none" stroke="black" d="M240.55,-647.97C244.89,-600.19 257.22,-464.62 262.52,-406.27"/>
<polygon fill="black" stroke="black" points="266.01,-406.58 263.43,-396.31 259.04,-405.95 266.01,-406.58"/>
</g>
<!-- RFC2595 -->
<g id="node33" class="node">
<title>RFC2595</title>
<g id="a_node33"><a xlink:href="http://tools.ietf.org/html/rfc2595" xlink:title="RFC2595: Using TLS with IMAP, POP3 and ACAP" target="_blank">
<path fill="yellow" stroke="black" d="M418,-612C418,-612 368,-612 368,-612 362,-612 356,-606 356,-600 356,-600 356,-588 356,-588 356,-582 362,-576 368,-576 368,-576 418,-576 418,-576 424,-576 430,-582 430,-588 430,-588 430,-600 430,-600 430,-606 424,-612 418,-612"/>
<text text-anchor="middle" x="393" y="-590.3" font-family="Courier,monospace" font-size="14.00">RFC2595</text>
</a>
</g>
</g>
<!-- RFC4616 -->
<g id="node35" class="node">
<title>RFC4616</title>
<g id="a_node35"><a xlink:href="http://tools.ietf.org/html/rfc4616" xlink:title="RFC4616: The PLAIN Simple Authentication and Security Layer (SASL) Mechanism" target="_blank">
<path fill="yellow" stroke="black" d="M483,-468C483,-468 433,-468 433,-468 427,-468 421,-462 421,-456 421,-456 421,-444 421,-444 421,-438 427,-432 433,-432 433,-432 483,-432 483,-432 489,-432 495,-438 495,-444 495,-444 495,-456 495,-456 495,-462 489,-468 483,-468"/>
<text text-anchor="middle" x="458" y="-446.3" font-family="Courier,monospace" font-size="14.00">RFC4616</text>
</a>
</g>
</g>
<!-- RFC2595&#45;&gt;RFC4616 -->
<g id="edge26" class="edge">
<title>RFC2595&#45;&gt;RFC4616</title>
<path fill="none" stroke="black" d="M400.84,-575.87C412.02,-551.46 432.63,-506.43 445.81,-477.64"/>
<polygon fill="black" stroke="black" points="449.15,-478.74 450.13,-468.19 442.79,-475.83 449.15,-478.74"/>
</g>
<!-- RFC7817 -->
<g id="node42" class="node">
<title>RFC7817</title>
<g id="a_node42"><a xlink:href="http://tools.ietf.org/html/rfc7817" xlink:title="RFC7817: Updated Transport Layer Security (TLS) Server Identity Check Procedure for Email&#45;Related Protocols" target="_blank">
<path fill="yellow" stroke="black" d="M353,-108C353,-108 303,-108 303,-108 297,-108 291,-102 291,-96 291,-96 291,-84 291,-84 291,-78 297,-72 303,-72 303,-72 353,-72 353,-72 359,-72 365,-78 365,-84 365,-84 365,-96 365,-96 365,-102 359,-108 353,-108"/>
<text text-anchor="middle" x="328" y="-86.3" font-family="Courier,monospace" font-size="14.00">RFC7817</text>
</a>
</g>
</g>
<!-- RFC2595&#45;&gt;RFC7817 -->
<g id="edge31" class="edge">
<title>RFC2595&#45;&gt;RFC7817</title>
<path fill="none" stroke="black" d="M382.43,-575.79C367.49,-549.77 342,-498.41 342,-451 342,-451 342,-451 342,-233 342,-193.02 336.44,-147.02 332.32,-118.47"/>
<polygon fill="black" stroke="black" points="335.76,-117.81 330.83,-108.43 328.84,-118.84 335.76,-117.81"/>
</g>
<!-- RFC2595&#45;&gt;RFC8314 -->
<g id="edge33" class="edge">
<title>RFC2595&#45;&gt;RFC8314</title>
<path fill="none" stroke="black" d="M393,-575.95C393,-549.29 393,-496.11 393,-451 393,-451 393,-451 393,-161 393,-120.55 401.9,-101.29 374,-72 353.21,-50.18 273.74,-34.19 221.45,-25.77"/>
<polygon fill="black" stroke="black" points="221.8,-22.28 211.38,-24.18 220.71,-29.19 221.8,-22.28"/>
</g>
<!-- RFC3206 -->
<g id="node34" class="node">
<title>RFC3206</title>
<g id="a_node34"><a xlink:href="http://tools.ietf.org/html/rfc3206" xlink:title="RFC3206: The SYS and AUTH POP Response Codes" target="_blank">
<path fill="yellow" stroke="black" d="M548,-540C548,-540 498,-540 498,-540 492,-540 486,-534 486,-528 486,-528 486,-516 486,-516 486,-510 492,-504 498,-504 498,-504 548,-504 548,-504 554,-504 560,-510 560,-516 560,-516 560,-528 560,-528 560,-534 554,-540 548,-540"/>
<text text-anchor="middle" x="523" y="-518.3" font-family="Courier,monospace" font-size="14.00">RFC3206</text>
</a>
</g>
</g>
<!-- RFC5721 -->
<g id="node37" class="node">
<title>RFC5721</title>
<g id="a_node37"><a xlink:href="http://tools.ietf.org/html/rfc5721" xlink:title="RFC5721: POP3 Support for UTF&#45;8" target="_blank">
<path fill="#c0c0c0" stroke="#a0a0a0" d="M483,-324C483,-324 433,-324 433,-324 427,-324 421,-318 421,-312 421,-312 421,-300 421,-300 421,-294 427,-288 433,-288 433,-288 483,-288 483,-288 489,-288 495,-294 495,-300 495,-300 495,-312 495,-312 495,-318 489,-324 483,-324"/>
<text text-anchor="middle" x="458" y="-302.3" font-family="Courier,monospace" font-size="14.00">RFC5721</text>
</a>
</g>
</g>
<!-- RFC6856 -->
<g id="node39" class="node">
<title>RFC6856</title>
<g id="a_node39"><a xlink:href="http://tools.ietf.org/html/rfc6856" xlink:title="RFC6856: Post Office Protocol Version 3 (POP3) Support for UTF&#45;8" target="_blank">
<path fill="yellow" stroke="black" d="M483,-180C483,-180 433,-180 433,-180 427,-180 421,-174 421,-168 421,-168 421,-156 421,-156 421,-150 427,-144 433,-144 433,-144 483,-144 483,-144 489,-144 495,-150 495,-156 495,-156 495,-168 495,-168 495,-174 489,-180 483,-180"/>
<text text-anchor="middle" x="458" y="-158.3" font-family="Courier,monospace" font-size="14.00">RFC6856</text>
</a>
</g>
</g>
<!-- RFC5721&#45;&gt;RFC6856 -->
<g id="edge30" class="edge">
<title>RFC5721&#45;&gt;RFC6856</title>
<path fill="none" stroke="#c0c0c0" d="M458,-287.87C458,-263.67 458,-219.21 458,-190.39"/>
<polygon fill="#c0c0c0" stroke="#c0c0c0" points="461.5,-190.19 458,-180.19 454.5,-190.19 461.5,-190.19"/>
</g>
<!-- RFC6186&#45;&gt;RFC8314 -->
<g id="edge34" class="edge">
<title>RFC6186&#45;&gt;RFC8314</title>
<path fill="none" stroke="black" d="M114.21,-215.85C125.5,-178.68 152.3,-90.44 165.85,-45.82"/>
<polygon fill="black" stroke="black" points="169.21,-46.82 168.77,-36.23 162.51,-44.78 169.21,-46.82"/>
</g>
<!-- RFC6857 -->
<g id="node40" class="node">
<title>RFC6857</title>
<g id="a_node40"><a xlink:href="http://tools.ietf.org/html/rfc6857" xlink:title="RFC6857: Post&#45;Delivery Message Downgrading for Internationalized Email Messages" target="_blank">
<path fill="yellow" stroke="black" d="M575,-180C575,-180 525,-180 525,-180 519,-180 513,-174 513,-168 513,-168 513,-156 513,-156 513,-150 519,-144 525,-144 525,-144 575,-144 575,-144 581,-144 587,-150 587,-156 587,-156 587,-168 587,-168 587,-174 581,-180 575,-180"/>
<text text-anchor="middle" x="550" y="-158.3" font-family="Courier,monospace" font-size="14.00">RFC6857</text>
</a>
</g>
</g>
<!-- RFC6858 -->
<g id="node41" class="node">
<title>RFC6858</title>
<g id="a_node41"><a xlink:href="http://tools.ietf.org/html/rfc6858" xlink:title="RFC6858: Simplified POP and IMAP Downgrading for Internationalized Email" target="_blank">
<path fill="yellow" stroke="black" d="M667,-180C667,-180 617,-180 617,-180 611,-180 605,-174 605,-168 605,-168 605,-156 605,-156 605,-150 611,-144 617,-144 617,-144 667,-144 667,-144 673,-144 679,-150 679,-156 679,-156 679,-168 679,-168 679,-174 673,-180 667,-180"/>
<text text-anchor="middle" x="642" y="-158.3" font-family="Courier,monospace" font-size="14.00">RFC6858</text>
</a>
</g>
</g>
</g>
</svg>
